<?xml version="1.0" standalone="no"?>
<!DOCTYPE svg PUBLIC "-//W3C//DTD SVG 20010904//EN"
 "http://www.w3.org/TR/2001/REC-SVG-20010904/DTD/svg10.dtd">
<svg version="1.0" xmlns="http://www.w3.org/2000/svg"
 width="1280.000000pt" height="976.000000pt" viewBox="0 0 1280.000000 976.000000"
 preserveAspectRatio="xMidYMid meet">
<metadata>
Created by potrace 1.15, written by Peter Selinger 2001-2017
</metadata>
<g transform="translate(0.000000,976.000000) scale(0.100000,-0.100000)"
fill="#000000" stroke="none">
<path d="M6706 9744 c-667 -121 -1384 -922 -2263 -2529 -139 -255 -409 -776
-580 -1118 -85 -171 -122 -236 -132 -232 -8 3 -43 10 -78 15 -217 30 -433
-113 -488 -325 -41 -160 1 -312 122 -432 l63 -64 -204 -407 c-389 -773 -560
-1063 -818 -1385 -510 -637 -961 -999 -1305 -1045 -207 -28 -365 63 -467 268
-128 261 -150 653 -60 1099 22 113 22 111 56 111 75 0 156 -85 203 -211 25
-66 33 -71 15 -9 -6 19 -58 222 -116 450 -58 228 -110 430 -116 448 -10 32
-14 25 -230 -380 -121 -227 -240 -451 -265 -497 l-46 -84 36 6 c51 8 99 33
185 94 64 46 74 51 69 31 -39 -157 -55 -579 -28 -743 65 -409 231 -664 491
-755 102 -36 266 -39 391 -7 248 64 514 232 799 504 214 204 332 334 539 593
192 240 306 414 499 760 97 174 394 751 487 946 l73 151 88 5 c74 3 100 10
157 37 178 85 282 281 249 471 -12 73 -52 162 -95 215 l-25 30 125 250 c786
1571 1330 2450 1864 3009 306 320 633 517 900 542 l65 7 -3 56 c-2 31 -6 75
-9 99 -5 40 -7 42 -37 41 -18 0 -67 -7 -111 -15z"/>
<path d="M12116 4668 c-72 -110 -158 -279 -281 -553 -205 -457 -381 -660 -684
-786 -82 -34 -85 -34 -286 2 -332 61 -626 164 -1205 425 -870 391 -1194 495
-1770 566 -162 20 -756 17 -940 -5 -216 -26 -629 -94 -766 -127 -613 -146
-1218 -480 -1668 -919 -269 -263 -444 -497 -611 -814 l-66 -125 227 -298 c365
-480 502 -643 719 -858 451 -447 951 -705 1560 -805 573 -94 1373 -23 2277
204 711 179 1559 489 2108 771 l95 49 110 -1 c96 0 122 -4 202 -32 116 -39
189 -76 295 -148 228 -154 428 -344 796 -754 146 -162 301 -332 346 -377 l81
-83 66 0 67 0 8 68 c11 104 -3 449 -26 632 -29 230 -96 555 -190 922 -238 925
-269 1059 -319 1353 -45 266 -55 399 -55 690 0 368 29 582 120 898 19 66 33
121 32 122 -5 4 -167 85 -171 85 -2 0 -34 -46 -71 -102z"/>
<path d="M2844 4566 c-10 -26 4 -48 28 -44 17 2 23 10 23 28 0 18 -6 26 -23
28 -13 2 -25 -3 -28 -12z"/>
</g>
</svg>
